<svg style="position: absolute; width: 0; height: 0;" width="0" height="0" version="1.1" xmlns="http://www.w3.org/2000/svg" xmlns:xlink="http://www.w3.org/1999/xlink">
<defs>
<symbol id="icon-left" viewBox="0 0 20 20">
<title>enter-left</title>
<path class="path1" d="M8.354 13.854c0.195-0.195 0.195-0.512 0-0.707l-2.146-2.146h12.293c0.276 0 0.5-0.224 0.5-0.5s-0.224-0.5-0.5-0.5h-12.293l2.146-2.146c0.195-0.195 0.195-0.512 0-0.707s-0.512-0.195-0.707 0l-3 3c-0.098 0.098-0.146 0.226-0.146 0.354s0.049 0.256 0.146 0.354l3 3c0.195 0.195 0.512 0.195 0.707 0z" fill="currentColor"></path>
<path class="path2" d="M0 16.5v-12c0-0.827 0.673-1.5 1.5-1.5h10c0.827 0 1.5 0.673 1.5 1.5v4c0 0.276-0.224 0.5-0.5 0.5s-0.5-0.224-0.5-0.5v-4c0-0.276-0.224-0.5-0.5-0.5h-10c-0.276 0-0.5 0.224-0.5 0.5v12c0 0.276 0.224 0.5 0.5 0.5h10c0.276 0 0.5-0.224 0.5-0.5v-4c0-0.276 0.224-0.5 0.5-0.5s0.5 0.224 0.5 0.5v4c0 0.827-0.673 1.5-1.5 1.5h-10c-0.827 0-1.5-0.673-1.5-1.5z" fill="currentColor"></path>
</symbol>
<symbol id="icon-right" viewBox="0 0 20 20">
<title>enter-right</title>
<path class="path1" d="M10.646 7.146c-0.195 0.195-0.195 0.512 0 0.707l2.146 2.146h-12.293c-0.276 0-0.5 0.224-0.5 0.5s0.224 0.5 0.5 0.5h12.293l-2.146 2.146c-0.195 0.195-0.195 0.512 0 0.707s0.512 0.195 0.707 0l3-3c0.098-0.098 0.146-0.226 0.146-0.354s-0.049-0.256-0.146-0.354l-3-3c-0.195-0.195-0.512-0.195-0.707 0z" fill="currentColor"></path>
<path class="path2" d="M19 4.5v12c0 0.827-0.673 1.5-1.5 1.5h-10c-0.827 0-1.5-0.673-1.5-1.5v-4c0-0.276 0.224-0.5 0.5-0.5s0.5 0.224 0.5 0.5v4c0 0.276 0.224 0.5 0.5 0.5h10c0.276 0 0.5-0.224 0.5-0.5v-12c0-0.276-0.224-0.5-0.5-0.5h-10c-0.276 0-0.5 0.224-0.5 0.5v4c0 0.276-0.224 0.5-0.5 0.5s-0.5-0.224-0.5-0.5v-4c0-0.827 0.673-1.5 1.5-1.5h10c0.827 0 1.5 0.673 1.5 1.5z" fill="currentColor"></path>
</symbol>

<symbol id="icon-group" viewBox="0 0 55 48">
<title>group</title>
<path class="path1" d="M54.857 10.286h-3.429v27.429h3.429v10.286h-10.286v-3.429h-34.286v3.429h-10.286v-10.286h3.429v-27.429h-3.429v-10.286h10.286v3.429h34.286v-3.429h10.286v10.286zM48 3.429v3.429h3.429v-3.429h-3.429zM3.429 3.429v3.429h3.429v-3.429h-3.429zM6.857 44.571v-3.429h-3.429v3.429h3.429zM44.571 41.143v-3.429h3.429v-27.429h-3.429v-3.429h-34.286v3.429h-3.429v27.429h3.429v3.429h34.286zM51.429 44.571v-3.429h-3.429v3.429h3.429zM34.286 17.143h10.286v20.571h-24v-6.857h-10.286v-20.571h24v6.857zM13.714 27.429h17.143v-13.714h-17.143v13.714zM41.143 34.286v-13.714h-6.857v10.286h-10.286v3.429h17.143z" fill="currentColor"></path>
</symbol>
<symbol id="icon-header" viewBox="0 0 48 48">
<title>header</title>
<path class="path1" d="M45.054 44.571q-1.179 0-3.549-0.094t-3.576-0.094q-1.179 0-3.536 0.094t-3.536 0.094q-0.643 0-0.991-0.549t-0.348-1.219q0-0.83 0.455-1.232t1.045-0.455 1.366-0.188 1.205-0.402q0.884-0.563 0.884-3.75l-0.027-10.473q0-0.563-0.027-0.83-0.348-0.107-1.339-0.107h-18.080q-1.018 0-1.366 0.107-0.027 0.268-0.027 0.83l-0.027 9.937q0 3.804 0.991 4.393 0.429 0.268 1.286 0.348t1.527 0.094 1.205 0.402 0.536 1.219q0 0.696-0.335 1.286t-0.978 0.589q-1.259 0-3.737-0.094t-3.71-0.094q-1.152 0-3.429 0.094t-3.402 0.094q-0.616 0-0.951-0.563t-0.335-1.205q0-0.804 0.415-1.205t0.964-0.469 1.272-0.201 1.125-0.402q0.884-0.616 0.884-3.83l-0.027-1.527v-21.777q0-0.080 0.013-0.696t0-0.978-0.040-1.031-0.094-1.125-0.174-0.978-0.295-0.844-0.429-0.482q-0.402-0.268-1.205-0.321t-1.42-0.054-1.098-0.375-0.482-1.205q0-0.696 0.321-1.286t0.964-0.589q1.232 0 3.71 0.094t3.71 0.094q1.125 0 3.388-0.094t3.388-0.094q0.67 0 1.004 0.589t0.335 1.286q0 0.804-0.455 1.165t-1.031 0.388-1.326 0.107-1.152 0.348q-0.938 0.563-0.938 4.286l0.027 8.571q0 0.563 0.027 0.857 0.348 0.080 1.045 0.080h18.723q0.67 0 1.018-0.080 0.027-0.295 0.027-0.857l0.027-8.571q0-3.723-0.938-4.286-0.482-0.295-1.567-0.335t-1.768-0.348-0.683-1.326q0-0.696 0.335-1.286t1.004-0.589q1.179 0 3.536 0.094t3.536 0.094q1.152 0 3.455-0.094t3.455-0.094q0.67 0 1.004 0.589t0.335 1.286q0 0.804-0.469 1.179t-1.071 0.388-1.379 0.080-1.179 0.335q-0.938 0.616-0.938 4.313l0.027 25.259q0 3.188 0.911 3.75 0.429 0.268 1.232 0.362t1.433 0.121 1.112 0.415 0.482 1.192q0 0.696-0.321 1.286t-0.964 0.589z" fill="currentColor"></path>
</symbol>
<symbol id="icon-function" viewBox="0 0 48 48">
<title>function</title>
<path class="path1" d="M36 7.969v6h-13.969l9.938 10.031-9.938 10.031h13.969v6h-24v-4.031l13.031-12-13.031-12v-4.031h24z" fill="currentColor"></path>
</symbol>
<symbol id="icon-widgets" viewBox="0 0 48 48">
<title>widgets</title>
<path class="path1" d="M33.281 3.375l11.344 11.344-11.344 11.25h8.719v16.031h-16.031v-16.031h7.313l-11.25-11.25v7.313h-16.031v-16.031h16.031v8.719zM6 42v-16.031h16.031v16.031h-16.031z" fill="currentColor"></path>
</symbol>
<symbol id="icon-design" viewBox="0 0 48 48">
<title>design</title>
<path class="path1" d="M48 13.5v-12l-46.5 46.5h12v-3h1.5v3h4.5v-6h1.5v6h4.5v-3h1.5v3h4.5v-6h1.5v6h4.5v-3h1.5v3h9v-9h-3v-1.5h3v-4.5h-6v-1.5h6v-4.5h-3v-1.5h3v-4.5h-6v-1.5h6v-4.5h-3v-1.5h3zM39 39h-16.5l16.5-16.5v16.5z" fill="currentColor"></path>
<path class="path2" d="M28.5 0l-24 24-4.5 12 12-4.5 24-24c0-4.5-3-7.5-7.5-7.5zM10.5 27l-3-3 21-21 3 3-21 21z" fill="currentColor"></path>
</symbol>
<symbol id="icon-color" viewBox="0 0 48 48">
<title>color</title>
<path class="path1" d="M24.144 6c-15.426 0-24.144 10.252-24.144 17.751 0 11.427 10.252 17.857 18.779 19.965s11.735-1.759 11.598-6.216c-0.166-5.414 2.538-5.484 4.455-5.293 1.915 0.192 13.168 2.79 13.168-5.833 0-10.671-8.431-20.374-23.856-20.374zM21 9c1.657 0 3 1.343 3 3s-1.343 3-3 3-3-1.343-3-3 1.343-3 3-3zM7.5 27.023c-0.841 0-1.523-0.682-1.523-1.523s0.682-1.523 1.523-1.523 1.523 0.682 1.523 1.523-0.682 1.523-1.523 1.523zM12 21c-1.657 0-3-1.343-3-3s1.343-3 3-3 3 1.343 3 3-1.343 3-3 3zM24 33c-3.314 0-6-2.015-6-4.5s2.686-4.5 6-4.5c3.314 0 6 2.015 6 4.5s-2.686 4.5-6 4.5zM34.5 21c-2.485 0-4.5-2.015-4.5-4.5s2.015-4.5 4.5-4.5 4.5 2.015 4.5 4.5-2.015 4.5-4.5 4.5z" fill="currentColor"></path>
</symbol>
<symbol id="icon-page" viewBox="0 0 48 48">
<title>page</title>
<path class="path1" d="M43.022 10.738c-1.041-1.42-2.493-3.080-4.086-4.674s-3.254-3.045-4.674-4.086c-2.418-1.773-3.59-1.978-4.262-1.978h-23.25c-2.068 0-3.75 1.682-3.75 3.75v40.5c0 2.068 1.682 3.75 3.75 3.75h18.75c0.828 0 1.5-0.672 1.5-1.5s-0.672-1.5-1.5-1.5h-18.75c-0.406 0-0.75-0.343-0.75-0.75v-40.5c0-0.406 0.344-0.75 0.75-0.75 0 0 23.248-0 23.25 0v10.5c0 0.828 0.672 1.5 1.5 1.5h10.5v10.5c0 0.828 0.672 1.5 1.5 1.5s1.5-0.672 1.5-1.5v-10.5c0-0.672-0.205-1.845-1.978-4.262zM33 12v-7.216c1.077 0.833 2.376 1.963 3.814 3.402s2.569 2.737 3.402 3.814h-7.217z" fill="currentColor"></path>
<path class="path2" d="M48 36h-6v-6h-6v6h-6v6h6v6h6v-6h6z" fill="currentColor"></path>
</symbol>
<symbol id="icon-variable" viewBox="0 0 48 48">
<title>variable</title>
<path class="path1" d="M22.5 27l-3-3-9 9 9 9 3-3-6-6 6-6z" fill="currentColor"></path>
<path class="path2" d="M25.5 39l3 3 9-9-9-9-3 3 6 6-6 6z" fill="currentColor"></path>
<path class="path3" d="M43.022 10.738c-1.041-1.42-2.493-3.080-4.086-4.674s-3.254-3.045-4.674-4.086c-2.418-1.773-3.59-1.978-4.262-1.978h-23.25c-2.068 0-3.75 1.682-3.75 3.75v40.5c0 2.068 1.682 3.75 3.75 3.75h34.5c2.068 0 3.75-1.682 3.75-3.75v-29.25c0-0.672-0.205-1.845-1.978-4.262v0zM36.814 8.186c1.439 1.439 2.569 2.737 3.402 3.814h-7.217v-7.216c1.077 0.833 2.376 1.963 3.814 3.402v0zM42 44.25c0 0.407-0.343 0.75-0.75 0.75h-34.5c-0.406 0-0.75-0.343-0.75-0.75v-40.5c0-0.406 0.344-0.75 0.75-0.75 0 0 23.248-0 23.25 0v10.5c0 0.828 0.671 1.5 1.5 1.5h10.5v29.25z" fill="currentColor"></path>
</symbol>
<symbol id="icon-tag" viewBox="0 0 48 48">
<title>tag</title>
<path class="path1" d="M45.75 0h-18c-1.237 0-2.966 0.716-3.841 1.591l-22.318 22.318c-0.875 0.875-0.875 2.307 0 3.182l19.318 19.318c0.875 0.875 2.307 0.875 3.182 0l22.318-22.318c0.875-0.875 1.591-2.603 1.591-3.841v-18c0-1.237-1.013-2.25-2.25-2.25zM34.5 18c-2.485 0-4.5-2.015-4.5-4.5s2.015-4.5 4.5-4.5 4.5 2.015 4.5 4.5-2.015 4.5-4.5 4.5z" fill="currentColor"></path>
</symbol>
<symbol id="icon-date" viewBox="0 0 48 48">
<title>date</title>
<path class="path1" d="M42 6h-4.5v1.5c0 1.654-1.346 3-3 3s-3-1.346-3-3v-1.5h-15v1.5c0 1.654-1.346 3-3 3s-3-1.346-3-3v-1.5h-4.5c-1.65 0-3 1.35-3 3v33c0 1.65 1.35 3 3 3h36c1.65 0 3-1.35 3-3v-33c0-1.65-1.35-3-3-3zM42 41.995c-0.002 0.002-0.004 0.004-0.005 0.005h-35.989c-0.002-0.002-0.004-0.004-0.005-0.005v-26.995h36v26.995zM13.5 9c0.828 0 1.5-0.672 1.5-1.5v-6c0-0.828-0.672-1.5-1.5-1.5s-1.5 0.672-1.5 1.5v6c0 0.828 0.672 1.5 1.5 1.5zM34.5 9c0.828 0 1.5-0.672 1.5-1.5v-6c0-0.828-0.672-1.5-1.5-1.5s-1.5 0.672-1.5 1.5v6c0 0.828 0.672 1.5 1.5 1.5zM27 18h-15v3h12v6h-12v3h12v6h-12v3h15zM33 39h3v-21h-6v3h3zM40.875 46.125h-33.75c-1.65 0-3-0.975-3-2.625v1.5c0 1.65 1.35 3 3 3h33.75c1.65 0 3-1.35 3-3v-1.5c0 1.65-1.35 2.625-3 2.625z" fill="currentColor"></path>
</symbol>
<symbol id="icon-phone" viewBox="0 0 48 48">
<title>phone</title>
<path class="path1" d="M34.5 0h-21c-2.475 0-4.5 2.025-4.5 4.5v39c0 2.475 2.025 4.5 4.5 4.5h21c2.475 0 4.5-2.025 4.5-4.5v-39c0-2.475-2.025-4.5-4.5-4.5zM18 2.25h12v1.5h-12v-1.5zM24 45c-1.657 0-3-1.343-3-3s1.343-3 3-3 3 1.343 3 3-1.343 3-3 3zM36 36h-24v-30h24v30z" fill="currentColor"></path>
</symbol>
<symbol id="icon-search" viewBox="0 0 48 48">
<title>search</title>
<path class="path1" d="M29.885 26.149c1.96-2.714 3.115-6.046 3.115-9.649 0-9.113-7.387-16.5-16.5-16.5s-16.5 7.387-16.5 16.5 7.387 16.5 16.5 16.5c3.603 0 6.936-1.156 9.649-3.115l15.851 18.115 6-6-18.115-15.851zM16.5 28.5c-6.627 0-12-5.373-12-12s5.373-12 12-12c6.627 0 12 5.373 12 12s-5.373 12-12 12z" fill="currentColor"></path>
</symbol>
<symbol id="icon-password" viewBox="0 0 48 48">
<title>password</title>
<path class="path1" d="M33 0c-8.284 0-15 6.716-15 15 0 0.939 0.087 1.857 0.252 2.748l-18.252 18.252v9c0 1.657 1.343 3 3 3h3v-3h6v-6h6v-6h6l3.893-3.893c1.594 0.577 3.314 0.893 5.107 0.893 8.284 0 15-6.716 15-15s-6.716-15-15-15zM37.494 15.006c-2.485 0-4.5-2.015-4.5-4.5s2.015-4.5 4.5-4.5 4.5 2.015 4.5 4.5-2.015 4.5-4.5 4.5z" fill="currentColor"></path>
</symbol>
<symbol id="icon-range" viewBox="0 0 48 48">
<title>range</title>
<path class="path1" d="M21 6v-0.75c0-1.238-1.013-2.25-2.25-2.25h-7.5c-1.238 0-2.25 1.012-2.25 2.25v0.75h-9v6h9v0.75c0 1.237 1.012 2.25 2.25 2.25h7.5c1.237 0 2.25-1.013 2.25-2.25v-0.75h27v-6h-27zM12 12v-6h6v6h-6zM39 20.25c0-1.237-1.013-2.25-2.25-2.25h-7.5c-1.237 0-2.25 1.013-2.25 2.25v0.75h-27v6h27v0.75c0 1.237 1.013 2.25 2.25 2.25h7.5c1.237 0 2.25-1.013 2.25-2.25v-0.75h9v-6h-9v-0.75zM30 27v-6h6v6h-6zM21 35.25c0-1.237-1.013-2.25-2.25-2.25h-7.5c-1.238 0-2.25 1.013-2.25 2.25v0.75h-9v6h9v0.75c0 1.237 1.012 2.25 2.25 2.25h7.5c1.237 0 2.25-1.013 2.25-2.25v-0.75h27v-6h-27v-0.75zM12 42v-6h6v6h-6z" fill="currentColor"></path>
</symbol>
<symbol id="icon-properties" viewBox="0 0 16 16">
<title>properties</title>
<path class="path1" d="M3 1v12h12v-12h-12zM14 12h-10v-10h10v10zM2 14v-10.5l-1-1v12.5h12.5l-1-1h-10.5z" fill="currentColor"></path>
<path class="path2" d="M5.5 4l2.5 2.5-3 3 1.5 1.5 3-3 2.5 2.5v-6.5z" fill="currentColor"></path>
</symbol>
<symbol id="icon-settings" viewBox="0 0 48 48">
<title>settings</title>
<path class="path1" d="M48 28.504v-9.009l-6.88-1.147c-0.279-0.85-0.62-1.672-1.017-2.461l4.053-5.673-6.37-6.37-5.664 4.046c-0.793-0.401-1.619-0.745-2.474-1.027l-1.144-6.863h-9.009l-1.144 6.863c-0.855 0.282-1.681 0.626-2.473 1.027l-5.664-4.046-6.37 6.37 4.053 5.674c-0.397 0.789-0.738 1.611-1.017 2.461l-6.88 1.147v9.009l6.896 1.149c0.279 0.842 0.619 1.657 1.014 2.439l-4.066 5.693 6.37 6.37 5.703-4.073c0.778 0.391 1.589 0.728 2.426 1.005l1.152 6.913h9.009l1.152-6.913c0.838-0.277 1.648-0.613 2.427-1.005l5.702 4.073 6.37-6.37-4.066-5.693c0.395-0.782 0.735-1.597 1.014-2.439l6.896-1.149zM24 30c-3.314 0-6-2.686-6-6s2.686-6 6-6c3.314 0 6 2.686 6 6s-2.686 6-6 6z" fill="currentColor"></path>
</symbol>
<symbol id="icon-action" viewBox="0 0 48 48">
<title>action</title>
<path class="path1" d="M36 6v9h-9v9h-9v9h-9v9h-9v6h15v-9h9v-9h9v-9h9v-9h6v-6zM3 30l22.219-22.5 4.781 4.5v-12h-12l4.219 4.5-22.219 22.5z" fill="currentColor"></path>
</symbol>
<symbol id="icon-trigger" viewBox="0 0 48 48">
<title>trigger</title>
<path class="path1" d="M18 0l-18 24h18l-12 24 42-30h-24l18-18z" fill="currentColor"></path>
</symbol>
<symbol id="icon-link" viewBox="0 0 48 48">
<title>link</title>
<path class="path1" d="M20.636 29.802c-0.624 0-1.248-0.238-1.724-0.714-4.459-4.459-4.459-11.716 0-16.175l9-9c2.16-2.16 5.032-3.35 8.088-3.35s5.927 1.19 8.088 3.35c4.459 4.46 4.459 11.716 0 16.175l-4.114 4.114c-0.952 0.952-2.495 0.952-3.447 0s-0.952-2.495 0-3.447l4.114-4.114c2.559-2.559 2.559-6.722 0-9.281-1.239-1.239-2.888-1.922-4.64-1.922s-3.401 0.683-4.64 1.922l-9 9c-2.559 2.559-2.559 6.722 0 9.281 0.952 0.952 0.952 2.495 0 3.447-0.476 0.476-1.1 0.714-1.724 0.714z" fill="currentColor"></path>
<path class="path2" d="M12 47.438c-3.055 0-5.927-1.19-8.088-3.35-4.459-4.459-4.459-11.716 0-16.175l4.114-4.114c0.952-0.952 2.495-0.952 3.447 0s0.952 2.495 0 3.447l-4.114 4.114c-2.559 2.559-2.559 6.722 0 9.281 1.239 1.239 2.887 1.922 4.64 1.922s3.401-0.683 4.641-1.922l9-9c2.559-2.559 2.559-6.722 0-9.281-0.952-0.952-0.952-2.495 0-3.447s2.495-0.952 3.447 0c4.459 4.459 4.459 11.716 0 16.175l-9 9c-2.16 2.16-5.033 3.35-8.088 3.35z" fill="currentColor"></path>
</symbol>
<symbol id="icon-file" viewBox="0 0 48 48">
<title>file</title>
<path class="path1" d="M31.211 15.33l-3.045-3.043-15.225 15.222c-2.523 2.522-2.523 6.612 0 9.133s6.612 2.522 9.135 0l18.271-18.268c4.205-4.203 4.205-11.019 0-15.222-4.203-4.205-11.021-4.205-15.224 0l-19.183 19.18c-0.014 0.014-0.029 0.027-0.041 0.040-5.864 5.864-5.864 15.368 0 21.23 5.862 5.862 15.369 5.862 21.234 0 0.013-0.013 0.024-0.027 0.038-0.041l0.002 0.002 13.094-13.092-3.046-3.043-13.094 13.090c-0.014 0.013-0.026 0.027-0.040 0.040-4.175 4.175-10.968 4.175-15.144 0-4.175-4.174-4.175-10.965 0-15.14 0.014-0.014 0.028-0.027 0.042-0.040l-0.002-0.003 19.185-19.18c2.518-2.519 6.616-2.519 9.135 0 2.518 2.519 2.518 6.616 0 9.133l-18.271 18.267c-0.841 0.84-2.206 0.84-3.046 0-0.839-0.838-0.839-2.205 0-3.043l15.225-15.224z" fill="currentColor"></path>
</symbol>
<symbol id="icon-hr" viewBox="0 0 48 48">
<title>hr</title>
<path class="path1" d="M3 21h42v6h-42v-6z" fill="currentColor"></path>
</symbol>
<symbol id="icon-close" viewBox="0 0 48 48">
<title>close</title>
<path class="path1" d="M24 0c-13.255 0-24 10.745-24 24s10.745 24 24 24 24-10.745 24-24-10.745-24-24-24zM36 31.5l-4.5 4.5-7.5-7.5-7.5 7.5-4.5-4.5 7.5-7.5-7.5-7.5 4.5-4.5 7.5 7.5 7.5-7.5 4.5 4.5-7.5 7.5 7.5 7.5z" fill="currentColor"></path>
</symbol>
<symbol id="icon-select" viewBox="0 0 48 48">
<title>select</title>
<path class="path1" d="M36 21l-12-12-12 12zM12 30l12 12 12-12z" fill="currentColor"></path>
</symbol>
<symbol id="icon-button" viewBox="0 0 48 48">
<title>button</title>
<path class="path1" d="M42 0h-36c-3.3 0-6 2.7-6 6v36c0 3.3 2.7 6 6 6h36c3.3 0 6-2.7 6-6v-36c0-3.3-2.7-6-6-6zM45.75 40.875h-7.314c-0 0-0 0-0 0 0.357-0.222 0.694-0.473 1.009-0.75l-0 0h6.306v0.75zM38.206 38.206c-0.996 0.996-2.312 1.544-3.706 1.544h-21c-1.394 0-2.71-0.548-3.706-1.544s-1.544-2.312-1.544-3.706v-21c0-1.394 0.548-2.71 1.544-3.706s2.312-1.544 3.706-1.544h21c1.394 0 2.71 0.548 3.706 1.544s1.544 2.312 1.544 3.706v21c0 1.394-0.548 2.71-1.544 3.706zM45.75 39.375h-5.565c-0 0-0 0-0 0 0.205-0.238 0.395-0.489 0.569-0.751-0 0-0 0.001-0.001 0.001h4.996v0.75zM45.75 37.875h-4.56c0.123-0.243 0.235-0.493 0.332-0.75h4.228v0.75zM45.75 36.375h-3.989c-0.001 0.003-0.002 0.006-0.003 0.009 0.065-0.248 0.117-0.502 0.157-0.759h3.835v0.75zM45.75 34.875h-3.76c0 0-0 0.001-0 0.001 0.006-0.125 0.010-0.25 0.010-0.376v-0.375h3.75v0.75zM45.75 33.375h-3.75v-0.75h3.75v0.75zM45.75 31.875h-3.75v-0.75h3.75v0.75zM45.75 30.375h-3.75v-0.75h3.75v0.75zM45.75 28.875h-3.75v-0.75h3.75v0.75zM45.75 27.375h-3.75v-0.75h3.75v0.75zM45.75 25.875h-3.75v-0.75h3.75v0.75zM45.75 24.375h-3.75v-0.75h3.75v0.75zM45.75 22.875h-3.75v-0.75h3.75v0.75zM45.75 21.375h-3.75v-0.75h3.75v0.75zM45.75 19.875h-3.75v-0.75h3.75v0.75zM45.75 18.375h-3.75v-0.75h3.75v0.75zM45.75 16.875h-3.75v-0.75h3.75v0.75zM45.75 15.375h-3.75v-0.75h3.75v0.75zM45.75 13.875h-3.75v-0.375c0-0.126-0.003-0.251-0.010-0.376 0 0 0 0.001 0 0.001h3.76v0.75zM45.75 12.375h-3.835c-0.039-0.258-0.092-0.511-0.157-0.759 0.001 0.003 0.002 0.006 0.003 0.009h3.989v0.75zM45.75 10.875h-4.228c-0.097-0.257-0.208-0.507-0.332-0.75h4.56v0.75zM45.75 9.375h-4.996c0 0 0 0.001 0.001 0.001-0.174-0.262-0.364-0.513-0.569-0.751h5.565v0.75zM45.75 6.375h-4.125l-0.75 0.75h4.875v0.75h-5.625l-0.328 0.328c-1.359-1.359-3.234-2.203-5.297-2.203h-21c-4.125 0-7.5 3.375-7.5 7.5v21c0 2.063 0.844 3.938 2.203 5.297l-0.328 0.328h0.68c0.314 0.277 0.651 0.528 1.008 0.75 0 0-0-0-0-0h-2.439l-0.75 0.75h4.794c0.735 0.242 1.518 0.375 2.331 0.375h21c0.813 0 1.596-0.133 2.331-0.375h8.919v0.375c0 0.191-0.015 0.379-0.043 0.564 0.010-0.063 0.018-0.126 0.024-0.189h-40.106l-0.75 0.75h40.701c-0.129 0.408-0.329 0.791-0.593 1.137 0.095-0.124 0.182-0.253 0.26-0.387h-41.117l-0.75 0.75h41.292c-0.007 0.007-0.014 0.014-0.021 0.021-0.323 0.323-0.693 0.579-1.094 0.764h-39.105c-0.401-0.184-0.771-0.441-1.094-0.764-0.712-0.711-1.104-1.651-1.104-2.646v-36c0-0.995 0.392-1.935 1.104-2.646s1.651-1.104 2.646-1.104h36c0.995 0 1.935 0.392 2.646 1.104 0.007 0.007 0.014 0.014 0.021 0.021h-0.042l-0.75 0.75h1.367c-0.078-0.133-0.165-0.263-0.26-0.387 0.264 0.345 0.464 0.729 0.593 1.137h-2.451l-0.75 0.75h3.356c-0.006-0.063-0.014-0.127-0.024-0.189 0.028 0.185 0.043 0.374 0.043 0.564v0.375zM45.576 43.125c0.038-0.119 0.069-0.24 0.095-0.363-0.026 0.123-0.057 0.244-0.095 0.363zM45.673 42.754c0.012-0.057 0.022-0.114 0.031-0.172-0.009 0.058-0.019 0.115-0.031 0.172zM44.667 44.625c0.053-0.054 0.104-0.109 0.153-0.165-0.049 0.056-0.1 0.112-0.153 0.165zM44.84 44.436c0.046-0.054 0.091-0.108 0.134-0.164-0.043 0.056-0.088 0.111-0.134 0.164zM44.667 3.375c0.053 0.054 0.104 0.109 0.153 0.165-0.049-0.056-0.1-0.112-0.153-0.165zM44.84 3.564c0.046 0.054 0.091 0.109 0.134 0.164-0.043-0.056-0.088-0.111-0.134-0.164zM45.576 4.875c0.038 0.119 0.070 0.241 0.095 0.363-0.026-0.123-0.058-0.244-0.095-0.363zM45.673 5.246c0.012 0.057 0.022 0.115 0.031 0.173-0.009-0.058-0.019-0.116-0.031-0.173z" fill="currentColor"></path>
</symbol>
<symbol id="icon-checkbox" viewBox="0 0 48 48">
<title>checkbox</title>
<path class="path1" d="M0 0v48h48v-48h-48zM45 45h-42v-42h42v42z" fill="currentColor"></path>
<path class="path2" d="M7.5 24l4.5-4.5 7.5 7.5 16.5-16.5 4.5 4.5-21 21z" fill="currentColor"></path>
</symbol>
<symbol id="icon-radio" viewBox="0 0 48 48">
<title>radio</title>
<path class="path1" d="M24 0c-13.255 0-24 10.745-24 24s10.745 24 24 24 24-10.745 24-24-10.745-24-24-24zM24 42c-9.941 0-18-8.059-18-18s8.059-18 18-18c9.941 0 18 8.059 18 18s-8.059 18-18 18zM15 24c0-4.971 4.029-9 9-9s9 4.029 9 9c0 4.971-4.029 9-9 9s-9-4.029-9-9z" fill="currentColor"></path>
</symbol>
<symbol id="icon-text" viewBox="0 0 48 48">
<title>text</title>
<path class="path1" d="M3 0v15l6-9h12v39h-6l-3 3h24l-3-3h-6v-39h12l6 9v-15z" fill="currentColor"></path>
</symbol>
<symbol id="icon-insert" viewBox="0 0 48 48">
<title>insert</title>
<path class="path1" d="M18 9h6v3h-6zM27 9h6v3h-6zM42 9v12h-9v-3h6v-6h-3v-3zM15 18h6v3h-6zM24 18h6v3h-6zM9 12v6h3v3h-6v-12h9v3zM18 27h6v3h-6zM27 27h6v3h-6zM42 27v12h-9v-3h6v-6h-3v-3zM15 36h6v3h-6zM24 36h6v3h-6zM9 30v6h3v3h-6v-12h9v3zM45 3h-42v42h42v-42zM48 0v0 48h-48v-48h48z" fill="currentColor"></path>
</symbol>
<symbol id="icon-textarea" viewBox="0 0 48 48">
<title>textarea</title>
<path class="path1" d="M0 9h48v3h-48zM0 15h33v3h-33zM0 21h48v3h-48zM0 27h33v3h-33zM0 33h48v3h-48zM0 39h33v3h-33z" fill="currentColor"></path>
</symbol>
<symbol id="icon-number" viewBox="0 0 48 48">
<title>number</title>
<path class="path1" d="M12 3l3-3h18l3 3-3 3h-18zM36 22.5l-3-3v-12l3-3 3 3v12zM12 22.5l-3-3v-12l3-3 3 3v12zM36 43.5l-3-3v-12l3-3 3 3v12zM12 24l3-3h18l3 3-3 3h-18zM12 45l3-3h18l3 3-3 3h-18z" fill="currentColor"></path>
</symbol>
<symbol id="icon-credit-card" viewBox="0 0 16 16">
<title>credit-card</title>
<path class="path1" d="M14.5 2h-13c-0.825 0-1.5 0.675-1.5 1.5v9c0 0.825 0.675 1.5 1.5 1.5h13c0.825 0 1.5-0.675 1.5-1.5v-9c0-0.825-0.675-1.5-1.5-1.5zM1.5 3h13c0.271 0 0.5 0.229 0.5 0.5v1.5h-14v-1.5c0-0.271 0.229-0.5 0.5-0.5zM14.5 13h-13c-0.271 0-0.5-0.229-0.5-0.5v-4.5h14v4.5c0 0.271-0.229 0.5-0.5 0.5zM2 10h1v2h-1zM4 10h1v2h-1zM6 10h1v2h-1z" fill="currentColor"></path>
</symbol>
<symbol id="icon-youtube" viewBox="0 0 48 48">
<title>youtube</title>
<path class="path1" d="M13.743 0l-3.243 6.433-3.243-6.433h-4.137l5.846 10.187 0.034-0.020v7.834h3v-7.834l0.034 0.020 5.846-10.187z" fill="currentColor"></path>
<path class="path2" d="M22.5 6c0.813 0 1.5 0.687 1.5 1.5v6c0 0.813-0.687 1.5-1.5 1.5s-1.5-0.687-1.5-1.5v-6c0-0.813 0.687-1.5 1.5-1.5zM22.5 3c-2.475 0-4.5 2.025-4.5 4.5v6c0 2.475 2.025 4.5 4.5 4.5s4.5-2.025 4.5-4.5v-6c0-2.475-2.025-4.5-4.5-4.5v0z" fill="currentColor"></path>
<path class="path3" d="M36 3v11.811c-1.309 1.092-3 1.75-3-2.139v-9.672h-3v10.281h0.005c0.046 2.48 0.569 6.945 5.995 3.315v1.405h3v-15h-3z" fill="currentColor"></path>
<path class="path4" d="M40.5 33c-0.827 0-1.5 0.673-1.5 1.5v1.5h3v-1.5c0-0.827-0.673-1.5-1.5-1.5z" fill="currentColor"></path>
<path class="path5" d="M27 34.5v7.875c1.016 1.016 3 1.125 3-0.375s0-5.531 0-7.031-1.5-1.969-3-0.469z" fill="currentColor"></path>
<path class="path6" d="M47.755 27.26c-0.131-1.728-0.752-3.138-1.865-4.23s-2.535-1.687-4.269-1.785c-3.271-0.163-10.756-0.245-17.33-0.245s-14.592 0.081-17.863 0.245c-1.734 0.098-3.157 0.693-4.269 1.785s-1.734 2.502-1.865 4.23c-0.196 3.521-0.294 4.798-0.294 6.558s0.098 4.401 0.294 7.922c0.131 1.728 0.752 3.138 1.865 4.23s2.535 1.687 4.269 1.785c3.271 0.163 11.288 0.244 17.863 0.244s14.059-0.081 17.33-0.244c1.734-0.098 3.157-0.693 4.269-1.785s1.734-2.502 1.865-4.23c0.164-2.934 0.245-5.575 0.245-7.922s-0.082-3.624-0.245-6.558zM9 45h-3v-15h-3v-3h9v3h-3v15zM21 45h-3v-1.404c-5.703 3.201-5.949 0.103-5.995-2.377h-0.005v-8.218h3v8.266c0 1.812 1.691 1.637 3 0.545v-8.811h3v12zM33 41.957c0 3.136-3.211 4.050-6 1.612v1.431h-3v-18h3v4.875c3-3 6-1.875 6 1.125s0 5.68 0 8.957zM45 36v1.5h-6v3c0 0.827 0.673 1.5 1.5 1.5s1.5-0.673 1.5-1.5v-1.5h3v1.5c0 2.481-2.019 4.5-4.5 4.5s-4.5-2.019-4.5-4.5v-6c0-2.481 2.019-4.5 4.5-4.5s4.5 2.019 4.5 4.5v1.5z" fill="currentColor"></path>
</symbol>
<symbol id="icon-vimeo" viewBox="0 0 48 48">
<title>vimeo</title>
<path class="path1" d="M0 14.455l1.95 2.557c0 0 4.020-3.169 5.361-1.584s6.456 20.717 8.164 24.246c1.491 3.095 5.602 7.187 10.112 4.265 4.506-2.922 19.492-15.717 22.175-30.826 2.68-15.104-18.034-11.94-20.228 1.219 5.484-3.292 8.411 1.338 5.605 6.58-2.801 5.237-5.361 8.653-6.701 8.653-1.338 0-2.367-3.505-3.899-9.63-1.584-6.333-1.575-17.74-8.162-16.447-6.212 1.219-14.376 10.968-14.376 10.968z" fill="currentColor"></path>
</symbol>

<symbol id="icon-puzzle" viewBox="0 0 16 16">
		<title>puzzle</title>
		<path d="M14.974 4.004h-2.632c-0.679-0.001-1.355-0.047-0.695-1.21 0.661-1.166 1.127-2.798-1.525-2.798s-2.185 1.632-1.525 2.798c0.659 1.163-0.017 1.209-0.695 1.21h-2.873c-0.564 0-1.026 0.462-1.026 1.026v3.193c0 0.68 0.184 1.36-0.981 0.699s-3.021-1.127-3.021 1.525c0 2.652 1.855 2.185 3.021 1.525s0.981 0.019 0.981 0.699v2.306c0 0.564 0.462 1.026 1.026 1.026h2.869c0.68 0 1.36-0.272 0.699-1.438s-1.127-2.797 1.525-2.797 2.186 1.632 1.525 2.797c-0.66 1.166 0.019 1.438 0.699 1.438h2.628c0.564 0 1.026-0.462 1.026-1.026v-9.948c0-0.564-0.462-1.026-1.026-1.026z" fill="currentColor"></path>
	</symbol>

	<symbol id="icon-code" viewBox="0 0 20 16">
		<title>code</title>
		<g fill="currentColor">
			<path d="M4 5.5v-2c0-0.828 0.672-1.5 1.5-1.5h0.5v-2h-0.5c-1.933 0-3.5 1.567-3.5 3.5v2c0 0.828-0.672 1.5-1.5 1.5h-0.5v2h0.5c0.828 0 1.5 0.672 1.5 1.5v2c0 1.933 1.567 3.5 3.5 3.5h0.5v-2h-0.5c-0.828 0-1.5-0.672-1.5-1.5v-2c0-0.979-0.402-1.865-1.051-2.5 0.648-0.635 1.051-1.521 1.051-2.5z"></path>
			<path d="M16 5.5v-2c0-0.828-0.672-1.5-1.5-1.5h-0.5v-2h0.5c1.933 0 3.5 1.567 3.5 3.5v2c0 0.828 0.672 1.5 1.5 1.5h0.5v2h-0.5c-0.828 0-1.5 0.672-1.5 1.5v2c0 1.933-1.567 3.5-3.5 3.5h-0.5v-2h0.5c0.828 0 1.5-0.672 1.5-1.5v-2c0-0.979 0.402-1.865 1.051-2.5-0.648-0.635-1.051-1.521-1.051-2.5z"></path>
			<path d="M12 5.014c0 1.105-0.895 2-2 2s-2-0.895-2-2c0-1.105 0.895-2 2-2s2 0.895 2 2z"></path>
			<path d="M10 7.986c-1.105 0-2 0.895-2 2 0 1.074 0.5 1.925 2.034 1.998-0.456 0.643-1.143 0.896-2.034 0.98v1.188c0 0 4 0.349 4-4.165-0.004-1.105-0.895-2-2-2z"></path>
		</g>
	</symbol>

	<symbol id="icon-plugin" viewBox="0 0 16 16">
		<title>power-cord</title>
		<path d="M16 4.414l-1.414-1.414-2.793 2.793-1.586-1.586 2.793-2.793-1.414-1.414-2.793 2.793-1.793-1.793-1.354 1.353 8 8 1.354-1.353-1.793-1.793 2.793-2.793z" fill="currentColor"></path>
		<path d="M12.407 10.528l-6.935-6.935c-1.497 1.795-3.196 4.57-2.022 6.957l-2.066 2.066c-0.486 0.486-0.486 1.282 0 1.768l0.232 0.232c0.486 0.486 1.282 0.486 1.768 0l2.066-2.066c2.387 1.174 5.161-0.524 6.957-2.022z" fill="currentColor"></path>
	</symbol>

	<symbol id="icon-layout" viewBox="0 0 48 48">
		<title>insert</title>
		<path class="path1" d="M18 9h6v3h-6zM27 9h6v3h-6zM42 9v12h-9v-3h6v-6h-3v-3zM15 18h6v3h-6zM24 18h6v3h-6zM9 12v6h3v3h-6v-12h9v3zM18 27h6v3h-6zM27 27h6v3h-6zM42 27v12h-9v-3h6v-6h-3v-3zM15 36h6v3h-6zM24 36h6v3h-6zM9 30v6h3v3h-6v-12h9v3zM45 3h-42v42h42v-42zM48 0v0 48h-48v-48h48z" fill="currentColor"></path>
	</symbol>	


	<symbol id="icon-logo" viewBox="0 0 195 158">
		<polygon fill="#036956" points="123.588,157.334 -0.111,112.121 -0.111,0.053 123.588,45.265 "/>
		<polygon fill="#02B196" points="194.889,136.243 159.238,146.849 123.588,157.452 123.588,136.243 123.588,115.036 159.238,125.64"/>
	</symbol>

	</defs>
</svg>
